Coordinates
version=1
nRows=17
nColumns=36
inDegrees=yes

Units are S.I. units (second, meters, Newtons, ...)
If the header above contains a line with 'inDegrees', this indicates whether rotational values are in degrees (yes) or radians (no).

endheader
time	pelvis_tilt	pelvis_list	pelvis_rotation	pelvis_tx	pelvis_ty	pelvis_tz	hip_flexion_r	hip_adduction_r	hip_rotation_r	knee_angle_r	knee_angle_r_beta	ankle_angle_r	subtalar_angle_r	mtp_angle_r	hip_flexion_l	hip_adduction_l	hip_rotation_l	knee_angle_l	knee_angle_l_beta	ankle_angle_l	subtalar_angle_l	mtp_angle_l	lumbar_extension	lumbar_bending	lumbar_rotation	arm_flex_r	arm_add_r	arm_rot_r	elbow_flex_r	pro_sup_r	arm_flex_l	arm_add_l	arm_rot_l	elbow_flex_l	pro_sup_l
      2.13333330	     26.19400630	     -8.21262813	      5.91011914	      1.07726085	      1.02261630	     -0.13338395	     13.40634719	      8.99400709	      1.64197994	     23.22061895	      0.40527626	     15.79685762	      1.19146923	     -7.49999987	    -28.16154154	     -4.22449515	    -12.57734648	      5.52704657	      0.09646516	     14.30701283	     -5.14794596	     -7.49999987	    -37.73889521	      8.04906399	      8.80652164	     50.14879529	      1.54439924	     51.76344036	    119.13579677	     92.55142519	     47.06885254	     -0.03528752	     63.92437042	    125.82714162	     95.63325110
      2.15000000	     25.64513269	     -8.58767600	      5.60753778	      1.07262261	      1.01841193	     -0.13080828	     15.52209401	      9.17917446	      1.50046181	     26.67513649	      0.46556896	     16.75882107	      0.25207306	     -7.49999987	    -27.90467096	     -4.46655382	    -13.13524771	      4.67644250	      0.08161932	     13.89998901	     -4.83933816	     -7.49999987	    -36.92863370	      7.77454929	      8.37945800	     50.07737451	      2.19912363	     52.21922268	    119.61336400	     92.52614376	     47.29525662	     -0.25667510	     64.70787755	    127.34327510	     95.47462835
      2.16666670	     25.03345296	     -9.09676359	      5.51411321	      1.08326945	      1.02045807	     -0.13146605	     17.29854600	      9.37586469	      1.03780402	     29.46317533	      0.51422942	     17.76700329	     -0.52817562	     -7.49999987	    -27.87614474	     -4.88721788	    -13.40945867	      3.54453571	      0.06186382	     13.44459734	     -4.59455721	     -7.49999987	    -35.58397973	      7.91795616	      7.52411770	     48.95849268	      2.89231213	     52.73061882	    119.68852733	     90.49970323	     46.35236993	     -1.09832249	     65.03796710	    128.63948211	     92.52839105
      2.18333330	     24.53805644	     -9.27816855	      5.42405533	      1.07866415	      1.01608253	     -0.12897575	     18.98433692	      9.26196182	      0.87604092	     31.81060106	      0.55519973	     18.47879744	     -0.93140968	     -7.49999987	    -27.69225767	     -5.01091620	    -13.66561807	      2.79014118	      0.04869715	     12.91378684	     -4.51635180	     -7.49999987	    -34.63828182	      7.65393290	      7.01422238	     48.48002527	      3.29318616	     53.48497133	    120.18797755	     90.79643855	     46.30400329	     -1.21891299	     65.11584153	    129.36225267	     92.49936671
      2.20000000	     24.35321386	     -9.31235163	      5.38400839	      1.07751756	      1.01286223	     -0.12905080	     20.30771610	      9.09261465	      0.91750458	     33.74851541	      0.58902271	     18.98486988	     -1.41824115	     -7.49999987	    -27.51189182	     -5.05633714	    -14.05473412	      2.47749289	      0.04324041	     12.52302166	     -4.80240987	     -7.49999987	    -34.14567858	      7.26904722	      6.98093612	     48.61566540	      3.31141712	     53.53431977	    120.74281568	     93.00501883	     46.52806650	     -1.05194778	     65.77230469	    129.56717006	     90.42667967
      2.21666670	     24.20116894	     -9.55307255	      5.60632332	      1.08323225	      1.01551946	     -0.12744475	     21.07972735	      9.04203673	      0.63954833	     34.82147216	      0.60774934	     19.54983944	     -1.80903040	     -7.49999987	    -27.59698511	     -5.39078768	    -14.31502632	      1.98322996	      0.03461389	     12.32354514	     -5.00458528	     -7.49999987	    -33.46003230	      7.33604954	      6.92309172	     48.29821927	      3.07747307	     53.59257926	    120.77903773	     92.89353797	     46.15718486	     -1.24404563	     66.49568765	    129.40267718	     90.52025307
      2.23333330	     24.45613436	     -9.77107719	      5.84769686	      1.07678328	      1.01509621	     -0.12512219	     21.45948735	      9.01920031	      0.36976803	     35.57555529	      0.62091057	     19.48563938	     -2.01345808	     -7.49999987	    -27.67878236	     -5.76121713	    -14.68389452	      1.98302414	      0.03461030	     12.21837135	     -5.19291340	     -7.49999987	    -33.47895769	      7.26859998	      6.80519493	     48.41021439	      3.00381334	     53.49370836	    120.77384140	     92.87934464	     46.30557061	     -1.20189404	     66.49404871	    129.38282483	     90.52538230
      2.25000000	     24.24839906	     -9.51750251	      5.90806890	      1.07670948	      1.01453026	     -0.12536569	     22.45111663	      8.59739035	      0.53807187	     36.68719485	      0.64031234	     19.67604893	     -2.57407032	     -7.49999987	    -27.29936391	     -5.56573536	    -14.69244968	      1.99472420	      0.03481450	     11.85055660	     -6.00443052	     -7.49999987	    -32.97478607	      6.48935845	      6.67417824	     48.24531725	      3.17294452	     53.05854165	    121.33716359	     92.09730654	     46.78984290	     -1.08793427	     66.71961876	    128.67113884	     89.93860604
      2.26666670	     24.15740968	     -9.58871588	      6.02216771	      1.07572160	      1.01389587	     -0.12526977	     22.94861548	      8.47054139	      0.44416984	     37.13137081	      0.64806468	     19.65129164	     -3.04337527	     -7.49999987	    -27.17418623	     -5.64968279	    -14.87461977	      1.85824175	      0.03243244	     11.53230227	     -6.40033340	     -7.49999987	    -32.53771256	      6.22539246	      6.28540172	     48.07295398	      3.48623641	     53.24575321	    121.58275599	     91.57727216	     46.82878303	     -1.16109622	     66.48749663	    128.08527664	     89.37494292
      2.28333330	     24.25220594	     -9.70390206	      6.28164910	      1.07586850	      1.01364435	     -0.12653208	     23.12235676	      8.32892445	      0.22110548	     37.20599309	      0.64936708	     19.41907474	     -3.31800020	     -7.49999987	    -27.24136240	     -5.81187811	    -14.97329676	      1.72462725	      0.03010042	     11.26981525	     -6.68594047	     -7.49999987	    -32.25945750	      6.22508757	      5.97793039	     47.93615607	      3.55760189	     53.25366386	    121.79914664	     91.69947259	     46.88658946	     -1.09081664	     66.17881955	    127.53159331	     89.89163857
      2.30000000	     24.51478922	     -9.51985284	      6.43731219	      1.06941391	      1.01303147	     -0.12353234	     23.16011057	      8.04710128	      0.28373983	     37.24763149	      0.65009381	     18.88559868	     -3.54301507	     -7.49999987	    -27.16954857	     -5.67685300	    -15.15601259	      1.86072578	      0.03247579	     11.06822814	     -7.03653660	     -7.49999987	    -32.52089003	      5.79457437	      6.02840772	     48.43422848	      3.57086944	     52.82828605	    121.38407968	     91.61212125	     47.43790967	     -1.01529949	     66.02634550	    127.05785671	     89.89186738
      2.31666670	     24.84484224	     -9.51287236	      6.65810837	      1.06924586	      1.01311348	     -0.12397315	     22.97195459	      7.91122640	      0.31018527	     36.85665245	      0.64326994	     18.11868904	     -3.86896037	     -7.49999987	    -27.16647945	     -5.72487317	    -15.07703045	      2.08187861	      0.03633564	     10.66811939	     -7.85039795	     -7.49999987	    -32.82363260	      5.60575063	      6.16804897	     48.73263956	      3.48806028	     52.27834619	    120.88225507	     89.17443701	     47.67801816	     -1.22570656	     64.66590944	    126.01419592	     87.89954037
      2.33333330	     25.09198624	     -9.38848951	      6.70628154	      1.06778847	      1.00801475	     -0.12349068	     23.07533984	      7.73754377	      0.60178944	     36.93021878	      0.64455391	     17.66195778	     -4.27998900	     -7.49999987	    -26.98858580	     -5.58868989	    -15.05220147	      2.57575568	      0.04495542	     10.26901418	     -8.83346086	     -7.49999987	    -33.01893487	      5.15548379	      5.91521769	     48.89956279	      3.96806261	     51.80477939	    120.98966186	     90.41953238	     48.23798207	     -1.07141198	     63.50478495	    125.65116658	     89.35711465
      2.35000000	     25.26557591	     -9.64027812	      6.74733826	      1.07343062	      1.00853532	     -0.12118937	     22.98912987	      7.94501662	      0.54920021	     36.84266916	      0.64302588	     17.73634193	     -4.43978687	     -7.49999987	    -27.06966337	     -5.83374630	    -15.42664796	      2.75825909	      0.04814070	     10.24324554	     -9.15114945	     -7.49999987	    -32.93141835	      5.15923944	      5.99878881	     48.35570626	      4.63644747	     52.13087856	    121.18919076	     90.41454791	     48.21934132	     -1.29429233	     63.02639766	    125.15302086	     89.34024674
      2.36666670	     25.46441642	     -9.97531139	      6.71569327	      1.07266616	      1.00851609	     -0.12141766	     22.72347968	      8.29061908	      0.57283150	     36.39613791	      0.63523244	     17.38047948	     -4.71768296	     -7.49999987	    -27.23867210	     -6.10521787	    -15.63973182	      2.75469178	      0.04807844	     10.08069720	     -9.43678424	     -7.49999987	    -32.83397698	      5.29054011	      5.82960978	     47.71537430	      5.38703033	     52.44110988	    120.65791459	     90.75840558	     47.44271923	     -1.57421094	     61.96271479	    124.93475236	     89.07316637
      2.38333330	     25.63934126	    -10.20990243	      6.71884336	      1.07297879	      1.00855606	     -0.12208405	     22.41663446	      8.51821035	      0.50160713	     35.98805114	      0.62810998	     17.11313043	     -4.70148373	     -7.49999987	    -27.36081262	     -6.31669027	    -15.74772782	      2.79224308	      0.04873384	     10.02136512	     -9.73522583	     -7.49999987	    -32.77144806	      5.37909436	      5.85472166	     47.24864440	      6.10385701	     52.83530769	    120.66945024	     90.86873490	     47.08808112	     -1.58462748	     62.25173594	    124.79671548	     89.64248875
      2.40000000	     25.86515614	    -10.36044589	      6.68590210	      1.07231456	      1.01100633	     -0.12175433	     21.92692320	      8.68581207	      0.43134858	     35.33073464	      0.61663765	     16.77099935	     -4.51335430	     -7.49999987	    -27.51818616	     -6.44002439	    -15.82184398	      2.86263313	      0.04996237	      9.92811187	     -9.87520638	     -7.49999987	    -32.91093795	      5.42837325	      6.06041106	     46.78077528	      6.46638295	     53.53918011	    120.90973569	     91.12211158	     46.65899983	     -1.50287305	     63.12967662	    124.77644313	     89.84983123
